{
  "asset": {"version": "2.0", "generator": "Heartstead Renderer V2"},
  "scene": 0,
  "scenes": [{"name": "Stateful Crate", "nodes": [0]}],
  "nodes": [
    {"name": "Crate", "children": [1, 2, 3, 4, 5, 6, 7]},
    {"name": "Body", "mesh": 0, "translation": [0.0, 0.42, 0.0], "scale": [0.72, 0.42, 0.58]},
    {"name": "Lid", "mesh": 0, "translation": [0.0, 0.87, -0.48], "scale": [0.75, 0.07, 0.60]},
    {"name": "CargoLow", "mesh": 1, "translation": [0.0, 0.42, 0.0], "scale": [0.56, 0.10, 0.42]},
    {"name": "CargoMid", "mesh": 1, "translation": [0.0, 0.58, 0.0], "scale": [0.56, 0.10, 0.42]},
    {"name": "CargoHigh", "mesh": 1, "translation": [0.0, 0.74, 0.0], "scale": [0.56, 0.10, 0.42]},
    {"name": "CarryStraps", "mesh": 2, "translation": [0.0, 0.45, 0.61], "scale": [0.58, 0.08, 0.05]},
    {"name": "MountBrackets", "mesh": 2, "translation": [0.0, 0.12, 0.0], "scale": [0.82, 0.08, 0.68]}
  ],
  "meshes": [
    {"name": "Crate Wood", "primitives": [{"attributes": {"POSITION": 0, "NORMAL": 1}, "indices": 2, "material": 0}]},
    {"name": "Visible Cargo", "primitives": [{"attributes": {"POSITION": 0, "NORMAL": 1}, "indices": 2, "material": 1}]},
    {"name": "Iron Fittings", "primitives": [{"attributes": {"POSITION": 0, "NORMAL": 1}, "indices": 2, "material": 2}]}
  ],
  "materials": [
    {"name": "Chestnut", "pbrMetallicRoughness": {"baseColorFactor": [0.28, 0.105, 0.026, 1.0], "metallicFactor": 0.0, "roughnessFactor": 0.76}},
    {"name": "Stored Clay", "pbrMetallicRoughness": {"baseColorFactor": [0.48, 0.17, 0.08, 1.0], "metallicFactor": 0.0, "roughnessFactor": 0.84}},
    {"name": "Iron Fittings", "pbrMetallicRoughness": {"baseColorFactor": [0.12, 0.14, 0.15, 1.0], "metallicFactor": 0.78, "roughnessFactor": 0.43}}
  ],
  "animations": [
    {"name": "Closed", "samplers": [{"input": 3, "output": 5, "interpolation": "LINEAR"}], "channels": [{"sampler": 0, "target": {"node": 2, "path": "rotation"}}]},
    {"name": "Open", "samplers": [{"input": 3, "output": 6, "interpolation": "LINEAR"}], "channels": [{"sampler": 0, "target": {"node": 2, "path": "rotation"}}]}
  ],
  "buffers": [{"uri": "production_geometry.bin", "byteLength": 804}],
  "bufferViews": [
    {"buffer": 0, "byteOffset": 0, "byteLength": 288, "target": 34962},
    {"buffer": 0, "byteOffset": 288, "byteLength": 288, "target": 34962},
    {"buffer": 0, "byteOffset": 576, "byteLength": 72, "target": 34963},
    {"buffer": 0, "byteOffset": 648, "byteLength": 12},
    {"buffer": 0, "byteOffset": 660, "byteLength": 48},
    {"buffer": 0, "byteOffset": 708, "byteLength": 48},
    {"buffer": 0, "byteOffset": 756, "byteLength": 48}
  ],
  "accessors": [
    {"bufferView": 0, "componentType": 5126, "count": 24, "type": "VEC3", "min": [-0.5, -0.5, -0.5], "max": [0.5, 0.5, 0.5]},
    {"bufferView": 1, "componentType": 5126, "count": 24, "type": "VEC3"},
    {"bufferView": 2, "componentType": 5123, "count": 36, "type": "SCALAR", "min": [0], "max": [23]},
    {"bufferView": 3, "componentType": 5126, "count": 3, "type": "SCALAR", "min": [0.0], "max": [1.0]},
    {"bufferView": 4, "componentType": 5126, "count": 3, "type": "VEC4"},
    {"bufferView": 5, "componentType": 5126, "count": 3, "type": "VEC4"},
    {"bufferView": 6, "componentType": 5126, "count": 3, "type": "VEC4"}
  ]
}
